<?xml version="1.0" standalone="no"?>
<!DOCTYPE svg PUBLIC "-//W3C//DTD SVG 20010904//EN"
 "http://www.w3.org/TR/2001/REC-SVG-20010904/DTD/svg10.dtd">
<svg version="1.0" xmlns="http://www.w3.org/2000/svg"
 width="512.000000pt" height="512.000000pt" viewBox="0 0 512.000000 512.000000"
 preserveAspectRatio="xMidYMid meet">
<metadata>
Created by potrace 1.14, written by Peter Selinger 2001-2017
</metadata>
<g transform="translate(0.000000,512.000000) scale(0.100000,-0.100000)"
fill="#000000" stroke="none">
<path d="M0 2560 l0 -2560 2560 0 2560 0 0 2560 0 2560 -2560 0 -2560 0 0
-2560z m4320 1653 c185 -64 315 -195 373 -378 l22 -70 0 -1205 0 -1205 -22
-70 c-59 -185 -192 -319 -378 -378 l-70 -22 -1685 0 -1685 0 -70 22 c-186 59
-319 193 -378 378 l-22 70 0 1205 0 1205 22 70 c26 81 79 173 131 229 78 81
208 149 322 166 30 4 802 7 1715 6 l1660 -1 65 -22z"/>
<path d="M845 4066 c-115 -37 -198 -108 -248 -214 -31 -65 -32 -72 -32 -197
l0 -131 38 -76 c24 -50 53 -90 81 -115 56 -49 1682 -1049 1739 -1069 74 -27
183 -29 255 -5 91 31 1710 1028 1773 1091 25 26 59 73 75 106 28 56 29 65 29
194 0 131 -1 137 -32 202 -40 85 -106 151 -191 191 l-67 32 -1690 2 c-1346 1
-1698 -1 -1730 -11z"/>
<path d="M562 2290 l3 -955 32 -67 c40 -85 106 -151 191 -191 l67 -32 1705 0
1705 0 67 32 c85 40 151 106 191 191 l32 67 3 955 2 954 -32 -31 c-51 -49
-1703 -1063 -1778 -1091 -78 -29 -218 -40 -301 -23 -30 6 -82 24 -115 40 -89
42 -1704 1038 -1742 1074 l-32 31 2 -954z"/>
</g>
</svg>
